<svg xmlns="http://www.w3.org/2000/svg" xmlns:xlink="http://www.w3.org/1999/xlink" version="1.1" x="0px" y="0px" viewBox="0 0 100 125" enable-background="new 0 0 100 100" xml:space="preserve"><path d="M59.414,16.613c1.242-2.644,2.266-4.398,2.293-4.442c0.392-0.666,0.17-1.523-0.494-1.916C57.08,7.812,50.287,7.785,50,7.785  s-7.08,0.027-11.212,2.47c-0.665,0.393-0.886,1.25-0.495,1.915c0.026,0.045,1.05,1.8,2.292,4.443  C26.824,20.683,16.753,33.436,16.753,48.5c0,0.257,0.141,26.47,0.503,28.536c0.068,0.387,0.295,0.728,0.626,0.938  c0.332,0.212,0.736,0.273,1.116,0.172c2.7-0.727,6.387,2.436,10.29,5.784c4.534,3.889,9.66,8.286,15.263,8.285  c0.114,0,0.229-0.001,0.343-0.005c0.104-0.004,0.206-0.019,0.302-0.044c0.643-0.127,1.128-0.693,1.128-1.373v-5.969  c1.255-0.032,2.427-0.046,3.675-0.046c1.248,0,2.42,0.014,3.676,0.046v5.969c0,0.68,0.484,1.246,1.127,1.373  c0.097,0.025,0.197,0.04,0.302,0.044c5.737,0.179,10.98-4.312,15.606-8.28c3.904-3.349,7.59-6.511,10.29-5.784  c0.38,0.102,0.784,0.04,1.116-0.172c0.331-0.211,0.559-0.552,0.627-0.938c0.361-2.065,0.502-28.279,0.502-28.536  C83.246,33.436,73.176,20.683,59.414,16.613z M44.3,11.209c0.201,1.264,0.699,3.258,1.937,5.376c0.261,0.445,0.729,0.694,1.21,0.694  c0.24,0,0.483-0.062,0.705-0.191c0.667-0.391,0.893-1.248,0.502-1.915c-1.025-1.755-1.429-3.406-1.588-4.399  c1.669-0.184,2.905-0.189,2.933-0.189c0.025,0,1.055,0.005,2.501,0.145c-0.567,1.587-1.355,4.338-1.622,7.918  c-0.057,0.771,0.521,1.443,1.292,1.5c0.036,0.003,0.071,0.004,0.105,0.004c0.726,0,1.34-0.56,1.395-1.295  c0.279-3.746,1.194-6.501,1.669-7.72c1.092,0.215,2.214,0.512,3.221,0.926c-1.653,3.064-5.547,10.923-6.281,18.167  c-0.648-0.228-1.417-0.395-2.279-0.395s-1.631,0.167-2.279,0.395c-0.734-7.244-4.628-15.103-6.281-18.167  C42.336,11.694,43.324,11.417,44.3,11.209z M50,81.979c-1.249,0-2.423,0.014-3.675,0.045V57.223c0-0.714-0.538-1.314-1.249-1.392  L28.65,54.042V47.13l21.134,3.251c0.07,0.012,0.143,0.016,0.216,0.016c0.072,0,0.144-0.004,0.214-0.016L71.35,47.13v6.912  l-16.426,1.789c-0.711,0.077-1.248,0.678-1.248,1.392v24.801C52.423,81.992,51.248,81.979,50,81.979z M80.074,75.239  c-3.604,0.062-7.302,3.233-11.186,6.564c-4.038,3.464-8.199,7.035-12.414,7.548V58.479l16.428-1.789  c0.709-0.077,1.248-0.677,1.248-1.392v-9.799c0-0.409-0.179-0.797-0.488-1.062c-0.311-0.266-0.721-0.384-1.125-0.321L50,47.582  l-22.537-3.467c-0.404-0.062-0.814,0.056-1.125,0.321s-0.488,0.653-0.488,1.062v9.799c0,0.715,0.538,1.314,1.249,1.392l16.426,1.789  v30.872c-4.209-0.518-8.375-4.084-12.413-7.547c-3.884-3.331-7.582-6.503-11.187-6.564c-0.225-5.302-0.372-23.943-0.372-26.74  c0-13.925,9.397-25.694,22.181-29.305c1.665,3.96,3.307,8.97,3.307,13.323c0,0.55,0.318,1.053,0.819,1.279  c0.187,0.084,0.384,0.126,0.58,0.126c0.331,0,0.658-0.119,0.917-0.347c0.011-0.01,1.125-0.942,2.642-0.942  c1.498,0,2.604,0.91,2.641,0.941c0.414,0.357,0.996,0.442,1.494,0.218c0.502-0.227,0.824-0.726,0.824-1.275  c0-4.354,1.643-9.363,3.307-13.323c12.785,3.61,22.182,15.38,22.182,29.305C80.447,51.296,80.3,69.939,80.074,75.239z"/></svg>