<svg xmlns="http://www.w3.org/2000/svg" xmlns:xlink="http://www.w3.org/1999/xlink" version="1.1" x="0px" y="0px" viewBox="0 0 100 125" enable-background="new 0 0 100 100" xml:space="preserve"><path d="M58.815,16.317c1.495-3.358,2.86-5.7,2.891-5.752c0.392-0.666,0.171-1.522-0.494-1.916C57.08,6.208,50.287,6.179,50,6.179  s-7.08,0.028-11.213,2.47c-0.664,0.393-0.886,1.25-0.494,1.916c0.03,0.051,1.396,2.394,2.892,5.752  c-14.067,3.873-24.431,16.778-24.431,32.06c0,0.415,0.147,42.267,0.503,44.286c0.067,0.388,0.295,0.728,0.627,0.939  c0.33,0.211,0.735,0.272,1.115,0.171c5.775-1.553,12.876-2.648,20.535-3.168c0.13-0.009,0.254-0.037,0.371-0.078  c0.656-0.025,1.224-0.511,1.328-1.184l0.98-6.352c5.096-0.306,10.487-0.307,15.572,0.003l0.98,6.349  c0.077,0.501,0.412,0.897,0.849,1.079c0.171,0.091,0.363,0.15,0.568,0.164c7.769,0.512,14.968,1.613,20.817,3.187  c0.119,0.032,0.242,0.048,0.363,0.048c0.264,0,0.525-0.074,0.752-0.219c0.332-0.212,0.559-0.552,0.627-0.939  c0.354-2.019,0.503-43.871,0.503-44.286C83.246,33.095,72.883,20.19,58.815,16.317z M44.3,9.605  c0.201,1.264,0.699,3.257,1.938,5.375c0.261,0.446,0.729,0.694,1.21,0.694c0.24,0,0.483-0.062,0.705-0.191  c0.668-0.391,0.893-1.248,0.502-1.915c-1.024-1.754-1.429-3.405-1.588-4.399c1.67-0.183,2.905-0.189,2.933-0.189  c0.025,0,1.055,0.006,2.502,0.146c-0.567,1.586-1.355,4.338-1.622,7.917c-0.058,0.771,0.521,1.443,1.292,1.501  c0.035,0.002,0.07,0.004,0.105,0.004c0.726,0,1.34-0.561,1.395-1.296c0.279-3.745,1.193-6.5,1.669-7.719  c1.092,0.214,2.214,0.511,3.221,0.925c-1.653,3.065-5.547,10.923-6.281,18.167c-0.648-0.228-1.417-0.395-2.279-0.395  s-1.632,0.167-2.279,0.395c-0.734-7.244-4.629-15.102-6.281-18.167C42.336,10.088,43.323,9.812,44.3,9.605z M42.277,18.925  c1.461,3.713,2.764,8.111,2.764,11.987c0,0.55,0.318,1.053,0.819,1.279c0.187,0.085,0.384,0.126,0.58,0.126  c0.331,0,0.657-0.118,0.917-0.347c0.012-0.01,1.126-0.942,2.643-0.942c1.498,0,2.604,0.91,2.641,0.941  c0.413,0.357,0.996,0.443,1.494,0.218c0.501-0.227,0.823-0.726,0.823-1.275c0-3.876,1.303-8.274,2.764-11.987  c13.061,3.427,22.725,15.33,22.725,29.451c0,2.569-0.094,23.305-0.252,35.332c-3.649-0.742-7.74-0.817-12.039-0.896  c-2.452-0.046-4.985-0.093-7.604-0.26l-2.535-16.417C66.46,61.863,70.03,55.688,71.54,51.183c1.699-5.078,1.221-9.131,1.199-9.302  c-0.064-0.509-0.4-0.941-0.878-1.129s-1.019-0.1-1.411,0.23C65.735,44.936,52.093,47.89,50,48.325  c-2.093-0.435-15.731-3.386-20.45-7.343c-0.394-0.33-0.935-0.418-1.412-0.23c-0.477,0.188-0.813,0.62-0.877,1.129  c-0.021,0.171-0.502,4.225,1.199,9.302c1.509,4.506,5.079,10.681,13.523,14.953l-2.536,16.423c-0.033,0-0.068,0-0.103,0.002  c-2.679,0.182-5.267,0.229-7.77,0.274c-4.198,0.077-8.193,0.15-11.77,0.874c-0.159-12.031-0.252-32.764-0.252-35.333  C19.554,34.255,29.217,22.352,42.277,18.925z M19.848,86.564c3.445-0.775,7.502-0.852,11.778-0.93  c2.375-0.043,4.827-0.09,7.385-0.248l-0.382,2.476c-6.852,0.499-13.261,1.452-18.692,2.779  C19.905,89.652,19.876,88.254,19.848,86.564z M42.651,80.162l2.257-14.62c0.095-0.614-0.227-1.217-0.789-1.481  c-6.562-3.075-10.923-7.667-12.964-13.647c-0.763-2.234-1.044-4.262-1.134-5.74c6.692,3.833,18.975,6.309,19.693,6.452  c0,0,0.001,0,0.002,0c0.003,0.001,0.009,0.002,0.012,0.002c0.014,0.003,0.026,0.004,0.04,0.006c0.031,0.006,0.062,0.011,0.094,0.014  c0.02,0.002,0.039,0.003,0.059,0.004c0.026,0.001,0.053,0.003,0.079,0.003c0.025,0,0.05-0.002,0.076-0.003  c0.021-0.001,0.041-0.002,0.062-0.004c0.029-0.003,0.059-0.008,0.088-0.013c0.016-0.002,0.03-0.004,0.046-0.007  c0.589-0.116,12.976-2.599,19.706-6.454c-0.09,1.479-0.371,3.506-1.133,5.74c-2.041,5.98-6.403,10.572-12.964,13.647  c-0.563,0.265-0.885,0.867-0.79,1.481l2.259,14.625C52.532,79.897,47.478,79.896,42.651,80.162z M61.371,87.862l-0.383-2.479  c2.46,0.142,4.823,0.186,7.115,0.228c4.379,0.08,8.531,0.158,12.049,0.953c-0.028,1.691-0.058,3.09-0.088,4.077  C74.63,89.313,68.226,88.361,61.371,87.862z"/></svg>