<svg xmlns="http://www.w3.org/2000/svg" xmlns:xlink="http://www.w3.org/1999/xlink" version="1.1" x="0px" y="0px" viewBox="0 0 100 125" enable-background="new 0 0 100 100" xml:space="preserve"><path d="M59.414,14.874c1.242-2.644,2.266-4.398,2.293-4.442c0.391-0.666,0.17-1.523-0.494-1.916C57.08,6.074,50.288,6.045,50,6.045  s-7.081,0.028-11.213,2.47c-0.665,0.393-0.886,1.25-0.494,1.915c0.026,0.045,1.05,1.8,2.292,4.443  c-13.762,4.07-23.832,16.823-23.832,31.887c0,0.432,0.148,44.017,0.503,46.037c0.068,0.387,0.296,0.727,0.627,0.938  S18.62,94.008,19,93.906c7.19-1.934,16.145-3.121,25.896-3.436c0.104-0.004,0.205-0.02,0.303-0.043  c0.643-0.127,1.127-0.693,1.127-1.373v-5.969c1.254-0.033,2.426-0.047,3.676-0.047c1.25,0,2.421,0.014,3.675,0.047v5.969  c0,0.68,0.484,1.246,1.127,1.373c0.098,0.023,0.197,0.039,0.303,0.043c9.75,0.314,18.705,1.502,25.896,3.436  c0.119,0.031,0.242,0.049,0.363,0.049c0.264,0,0.525-0.076,0.752-0.221c0.332-0.211,0.559-0.551,0.627-0.938  c0.354-2.02,0.502-45.605,0.502-46.037C83.246,31.697,73.176,18.944,59.414,14.874z M44.3,9.47c0.201,1.264,0.699,3.258,1.937,5.376  c0.261,0.445,0.729,0.694,1.211,0.694c0.24,0,0.482-0.062,0.705-0.192c0.667-0.39,0.893-1.247,0.502-1.915  c-1.024-1.754-1.429-3.405-1.588-4.398c1.67-0.184,2.905-0.189,2.933-0.189c0.025,0,1.055,0.005,2.5,0.145  c-0.566,1.587-1.354,4.338-1.622,7.918c-0.057,0.771,0.522,1.443,1.293,1.5c0.035,0.003,0.07,0.004,0.104,0.004  c0.727,0,1.342-0.56,1.396-1.296c0.279-3.745,1.193-6.5,1.668-7.719c1.092,0.215,2.215,0.512,3.221,0.926  c-1.652,3.064-5.547,10.923-6.281,18.167c-0.648-0.228-1.417-0.395-2.279-0.395c-0.862,0-1.632,0.167-2.279,0.395  c-0.735-7.244-4.629-15.103-6.281-18.167C42.335,9.955,43.324,9.678,44.3,9.47z M50,80.24c-1.251,0-2.425,0.014-3.676,0.043V57.234  c0-0.664-0.465-1.236-1.114-1.371L28.65,52.42v-7.261H50H71.35v7.261l-16.559,3.443c-0.65,0.135-1.115,0.707-1.115,1.371v23.049  C52.426,80.254,51.25,80.24,50,80.24z M80.062,90.775c-6.758-1.656-14.85-2.703-23.588-3.055V58.373l16.561-3.443  c0.65-0.135,1.115-0.707,1.115-1.371v-9.799c0-0.773-0.627-1.4-1.4-1.4H50H27.25c-0.773,0-1.4,0.627-1.4,1.4v9.799  c0,0.664,0.466,1.236,1.115,1.371l16.56,3.443v29.348c-8.736,0.352-16.827,1.398-23.585,3.053  c-0.235-7.77-0.387-40.793-0.387-44.013c0-13.925,9.396-25.694,22.182-29.306c1.664,3.961,3.307,8.971,3.307,13.324  c0,0.55,0.317,1.053,0.819,1.279c0.187,0.084,0.384,0.126,0.579,0.126c0.332,0,0.658-0.119,0.918-0.347  c0.011-0.01,1.126-0.942,2.643-0.942c1.498,0,2.603,0.91,2.64,0.941c0.414,0.357,0.996,0.443,1.494,0.218  c0.502-0.227,0.824-0.726,0.824-1.275c0-4.354,1.643-9.364,3.307-13.324c12.785,3.611,22.182,15.381,22.182,29.306  C80.447,49.981,80.297,83.035,80.062,90.775z"/></svg>