<svg xmlns="http://www.w3.org/2000/svg" xmlns:xlink="http://www.w3.org/1999/xlink" version="1.1" x="0px" y="0px" viewBox="0 0 100 125" style="enable-background:new 0 0 100 100;" xml:space="preserve"><path d="M13.9,58.3c3.4,0.7,7.6,0.2,10.6-0.5c-1.6,2.3-4.9,5.8-10.3,7.6c-0.4,0.1-0.7,0.6-0.7,1.1c1,9,3.9,16.8,8.7,23.1  c0.2,0.3,0.5,0.4,0.8,0.4c0,0,0,0,0.1,0c0.9-0.1,21.9-1.7,29.1-10.7C63.9,89.8,84.1,90,84.4,90c0.4,0,0.7-0.2,0.9-0.5s0.2-0.7,0-1  c-7.5-11.4-7.8-29.2-7.8-30.8c0.2-1.3,0.4-2.5,0.5-3.8l8.9,1.1c0,0,0.1,0,0.1,0c0.2,0,0.5-0.1,0.7-0.3c0.2-0.2,0.3-0.5,0.3-0.7  c0-16-4.8-27.9-14.1-35.2c-8.9-7-20.4-8.5-28.4-8.5c-0.1,0-0.1,0-0.2,0c-8.6,0-15,1.6-15.2,1.6c-0.3,0.1-0.5,0.2-0.6,0.5  s-0.2,0.5-0.1,0.8l3.5,9.7c-1,0.4-2,0.9-2.9,1.3c-8.4,3.3-14.5,1.9-14.5,1.9c-0.3-0.1-0.7,0-0.9,0.2c-0.2,0.2-0.4,0.6-0.3,0.9  c0.7,3.4,1.6,6.5,2.6,9.2c-0.6,1.7-3.2,10.1-3.6,20.8C13.1,57.8,13.4,58.2,13.9,58.3z M46,21.7c16.5,0,30,13.5,30,30  c0,1.6-0.1,3.1-0.4,4.6C43.3,51,33.2,30,31.4,25.6C35.5,23.6,41.4,21.7,46,21.7z M31.5,13.5c5.1-1,26.8-4.5,41.1,6.7  C81.2,27,85.7,38,86,52.8l-8-1c0,0,0-0.1,0-0.1c0-17.6-14.4-32-32-32c-3.6,0-7.8,1-11.4,2.4L31.5,13.5z M29.6,26.4  c0.9,2.2,3.4,7.5,8.8,13.4c6.3,6.7,17.7,15.4,37.1,18.6c0.1,3.7,0.8,18.6,7.1,29.5c-7.4-0.4-34.8-3.5-36.8-25.2  c0-0.4-0.4-0.8-0.8-0.9c-0.2,0-22.2-4.6-28.7-33.5C18.6,28.5,23.5,28.6,29.6,26.4z M17.8,39.5c8,18.3,22.6,23.2,26,24.1  c0.7,6,3.2,10.7,6.7,14.3c-6,7.7-23.9,9.7-27.3,10.1c-4.2-5.8-6.9-12.8-7.8-20.9c8.7-3.2,11.9-10.2,12.1-10.5  c0.2-0.4,0.1-0.8-0.2-1.1c-0.3-0.3-0.7-0.4-1.1-0.2c-2.3,0.9-7.2,1.9-11.2,1.3C15.5,49.1,16.9,42.8,17.8,39.5z"/></svg>