<svg xmlns="http://www.w3.org/2000/svg" xmlns:xlink="http://www.w3.org/1999/xlink" version="1.1" x="0px" y="0px" viewBox="0 0 100 125" enable-background="new 0 0 100 100" xml:space="preserve"><path d="M92.2,7.6c-3.4-3.4-9-3.4-12.4,0c-1.7,1.7-2.7,4.1-2.6,6.6c0,0.1,0,0.3,0.1,0.4L64.7,27.1c-1.6-0.7-3.3-1-5-1  c-2.2,0-4.3,0.5-6.4,1.6c-0.9,0.5-1.6,1.3-1.7,2.3c-0.1,0.8,0,1.6,0.5,2.2c-9.5,14.1-41,41.3-41.3,41.6c-0.1,0.1-0.1,0.1-0.2,0.2  c-2.9,5.2-5.1,19.4-5.2,20c0,0,0,0,0,0c0,0.1,0,0.1,0,0.2c0,0,0,0,0,0c0,0.1,0,0.2,0.1,0.3c0,0,0,0,0.1,0.1c0,0,0.1,0.1,0.1,0.1  c0,0,0.1,0,0.1,0.1c0,0,0.1,0,0.1,0.1c0,0,0,0,0.1,0c0,0,0,0,0.1,0c0.1,0,0.2,0,0.3,0c0,0,0,0,0,0l0,0c0,0,0,0,0,0c0,0,0,0,0,0  c0,0,0.1,0,0.1,0c0.6-0.1,14.9-2.3,20-5.2c0.1,0,0.2-0.1,0.2-0.2c0.3-0.3,27.6-31.8,41.6-41.3c0.5,0.3,1.1,0.5,1.7,0.5  c1.1,0,2.1-0.6,2.7-1.5c1.6-2.5,3.4-7,0.9-12.1l12.3-12.4c0.1-0.1,0.1-0.1,0.1-0.2c0.1,0,0.1,0,0.2,0c0,0,0.1,0,0.1,0  c2.4,0,4.6-0.9,6.2-2.6C95.7,16.6,95.7,11,92.2,7.6z M11.8,75c2.4-2.1,31.6-27.5,41.3-41.5l6.2,6.2l-52,52.2  C8,87.4,9.8,78.7,11.8,75z M25.2,88.4c-3.7,2-12.5,3.8-16.8,4.6l52-52.2l6.3,6.3C52.7,56.8,27.3,86,25.2,88.4z M71,46.4  c-0.3,0.5-0.8,0.7-1.3,0.7c-0.4,0-0.8-0.2-1.1-0.5c0,0,0,0,0,0L61,39c0,0,0,0,0,0s0,0,0,0l-7.4-7.4c-0.4-0.4-0.5-0.9-0.4-1.4  c0.1-0.5,0.4-0.9,0.8-1.1c1.9-0.9,3.8-1.4,5.7-1.4c3.3,0,6.4,1.4,9.2,4.3C74.6,37.7,73.2,42.9,71,46.4z M72.4,33.7  c-0.6-0.9-1.4-1.9-2.4-2.9c-1.2-1.2-2.5-2.2-3.8-3l12-12c0.6,0.1,2.2,0.4,3.9,2c1.7,1.7,2,3.3,2,3.9L72.4,33.7z M91.1,18.9  c-1.4,1.4-3.2,2.1-5.1,2.1c-0.1,0-0.2,0-0.2,0c-0.2-1-0.8-2.6-2.4-4.2c-1.7-1.7-3.4-2.3-4.5-2.5c0-0.1,0-0.2,0-0.2  c-0.1-2,0.7-3.9,2.1-5.4c2.8-2.8,7.3-2.8,10.1,0C93.9,11.5,93.9,16.1,91.1,18.9z"/></svg>