<svg xmlns="http://www.w3.org/2000/svg" xmlns:xlink="http://www.w3.org/1999/xlink" version="1.1" x="0px" y="0px" viewBox="0 0 100 125" style="enable-background:new 0 0 100 100;" xml:space="preserve"><g><g><path d="M50,45.5c-9.6,0-17.5-7.8-17.5-17.5c0-9.6,7.8-17.5,17.5-17.5c9.6,0,17.5,7.8,17.5,17.5    S59.6,45.5,50,45.5z M50,11.6c-9.1,0-16.5,7.4-16.5,16.5S40.9,44.5,50,44.5S66.5,37.1,66.5,28S59.1,11.6,50,11.6z"/></g><g><path d="M81.9,89.4h-1v-5c0-16.3-13.2-29.5-29.5-29.5h-2.8c-16.3,0-29.5,13.2-29.5,29.5v5h-1v-5    c0-16.8,13.7-30.5,30.5-30.5h2.8c16.8,0,30.5,13.7,30.5,30.5V89.4z"/></g></g></svg>