<svg xmlns="http://www.w3.org/2000/svg" xmlns:xlink="http://www.w3.org/1999/xlink" version="1.1" x="0px" y="0px" viewBox="0 0 100 125" enable-background="new 0 0 100 100" xml:space="preserve"><path d="M48.806,91.288l-1.359-0.523c-6.631-2.552-28.432-13.366-30.528-45.351l-0.07-1.065h31.958V91.288z M18.992,46.348  c2.269,28.074,20.369,38.764,27.814,41.993V46.348H18.992z M51.199,91.287V44.348h31.947l-0.069,1.065  c-2.094,31.994-23.889,42.801-30.519,45.351L51.199,91.287z M53.199,46.348v41.993c7.443-3.227,25.537-13.911,27.804-41.993H53.199z   M83.246,41.959H51.199V9.122l1.046,0.048c18.187,0.843,30.181,11.446,30.682,11.897l0.332,0.298v18.994  c0,0.11-0.003,0.22-0.007,0.331L83.246,41.959z M53.199,39.959h28.06V22.273c-1.993-1.648-12.784-9.989-28.06-11.045V39.959z   M48.806,41.959H16.754l-0.006-1.27c-0.004-0.111-0.007-0.221-0.007-0.331V21.365l0.332-0.298  C17.574,20.616,29.567,10.008,47.76,9.17l1.046-0.048V41.959z M18.741,39.959h28.065V11.228  C31.499,12.28,20.73,20.623,18.741,22.272V39.959z"/></svg>