<svg xmlns="http://www.w3.org/2000/svg" xmlns:xlink="http://www.w3.org/1999/xlink" version="1.1" x="0px" y="0px" viewBox="0 0 100 125" style="enable-background:new 0 0 100 100;" xml:space="preserve"><path d="M27.768,17.342c-3.352-1.268-5.938-6.944-5.964-7.002c-0.161-0.358-0.519-0.59-0.912-0.59h-0.145  c-0.394,0-0.751,0.231-0.912,0.59c-0.025,0.058-2.612,5.734-5.964,7.002c-0.414,0.156-0.676,0.566-0.644,1.007l3.702,51.729h-0.71  c-0.553,0-1,0.447-1,1v3.86c0,0.553,0.447,1,1,1h0.431v10.101c0,2.326,1.892,4.218,4.217,4.218c2.326,0,4.218-1.892,4.218-4.218  V75.938h0.334c0.553,0,1-0.447,1-1v-3.86c0-0.553-0.447-1-1-1h-0.71l3.702-51.729C28.443,17.908,28.182,17.498,27.768,17.342z   M24.419,72.077v1.86H17.22v-1.86H24.419z M15.271,18.902c1.871-0.969,3.434-2.835,4.548-4.493v55.668h-0.886L15.271,18.902z   M23.085,75.938v0.114l-4.435,4.435v-4.55H23.085z M20.867,88.256c-1.223,0-2.217-0.995-2.217-2.218v-2.723l4.435-4.435v7.158  C23.085,87.261,22.09,88.256,20.867,88.256z M22.705,70.077h-0.886V14.409c1.114,1.659,2.677,3.524,4.548,4.493L22.705,70.077z"/><path d="M53.035,18.735c0.039-0.007,0.069-0.031,0.105-0.042c0.065-0.02,0.125-0.041,0.184-0.073  c0.057-0.031,0.107-0.065,0.156-0.106c0.05-0.041,0.095-0.083,0.136-0.133c0.041-0.049,0.074-0.1,0.104-0.156  c0.031-0.056,0.056-0.112,0.076-0.173c0.021-0.064,0.031-0.128,0.039-0.196c0.004-0.038,0.022-0.071,0.022-0.109l-0.017-5.567  c-0.002-0.551-0.449-0.997-1-0.997c-10.788,0-19.565,8.777-19.565,19.566c0,10.788,8.777,19.565,19.565,19.565  c0.269,0,0.526-0.108,0.714-0.3c0.188-0.192,0.291-0.452,0.286-0.721l-0.115-5.653c-0.001-0.031-0.016-0.056-0.02-0.086  c-0.008-0.07-0.023-0.134-0.045-0.2c-0.018-0.053-0.036-0.104-0.063-0.152c-0.04-0.076-0.09-0.14-0.147-0.203  c-0.021-0.021-0.039-0.043-0.061-0.062c-0.079-0.073-0.169-0.128-0.271-0.173c-0.015-0.007-0.03-0.013-0.045-0.019  c-0.051-0.019-0.093-0.052-0.148-0.063c-2.215-0.454-3.822-2.427-3.822-4.692c0-3.489,3.665-3.761,4.788-3.761  c0.064,0,0.12-0.025,0.18-0.036l0.057,0.314c0.249,1.367,1.387,2.369,2.751,2.48l-2.308,48.778c-0.055,1.16,0.365,2.299,1.152,3.124  c0.759,0.796,1.771,1.234,2.852,1.234h2.653c1.08,0,2.093-0.438,2.852-1.234c0.788-0.825,1.207-1.964,1.152-3.123l-2.308-48.779  c1.364-0.111,2.503-1.113,2.75-2.48l0.064-0.352c0.115,0.046,0.24,0.075,0.371,0.075c1.123,0,4.788,0.271,4.788,3.761  c0,2.266-1.607,4.239-3.821,4.692c-0.056,0.011-0.1,0.044-0.152,0.064c-0.006,0.002-0.011,0.005-0.017,0.007  c-0.117,0.048-0.219,0.112-0.307,0.196c-0.006,0.006-0.011,0.012-0.018,0.018c-0.074,0.074-0.136,0.154-0.184,0.248  c-0.022,0.04-0.036,0.082-0.052,0.125c-0.025,0.071-0.043,0.141-0.051,0.218c-0.003,0.029-0.019,0.053-0.02,0.083l-0.116,5.653  c-0.005,0.269,0.098,0.528,0.286,0.721c0.188,0.191,0.445,0.3,0.714,0.3c10.788,0,19.565-8.777,19.565-19.565  c0-10.789-8.777-19.566-19.565-19.566c-0.551,0-0.998,0.446-1,0.997l-0.017,5.567c0,0.039,0.018,0.072,0.022,0.109  c0.008,0.068,0.018,0.132,0.039,0.196c0.02,0.062,0.045,0.117,0.076,0.173c0.031,0.056,0.064,0.107,0.105,0.156  c0.041,0.05,0.086,0.092,0.136,0.132c0.049,0.04,0.099,0.075,0.156,0.106c0.059,0.032,0.119,0.054,0.184,0.073  c0.037,0.011,0.067,0.035,0.105,0.042c2.278,0.41,3.932,2.393,3.932,4.712c0,3.489-3.665,3.761-4.788,3.761  c-0.052,0-0.098,0.022-0.148,0.03c-0.372-0.551-0.893-0.987-1.497-1.276l0.756-4.9c0.005-0.034,0.009-0.068,0.011-0.103  c0.055-1.106-0.335-2.159-1.1-2.962c-0.764-0.804-1.796-1.246-2.904-1.246h-2.653c-1.108,0-2.141,0.442-2.904,1.246  c-0.765,0.803-1.154,1.855-1.1,2.962c0.002,0.033,0.005,0.067,0.011,0.101l0.745,4.908c-0.587,0.284-1.093,0.707-1.461,1.24  c-1.148-0.004-4.763-0.294-4.763-3.76C49.104,21.128,50.757,19.146,53.035,18.735z M72.899,23.447c0-2.998-1.959-5.577-4.752-6.455  l0.011-3.78c9.224,0.519,16.568,8.187,16.568,17.538c0,9.343-7.332,17.005-16.544,17.536l0.08-3.879  c2.724-0.916,4.636-3.484,4.636-6.417c0-3.5-2.664-5.761-6.788-5.761c-0.008,0-0.014,0.004-0.022,0.004l0.497-2.728  c0.011-0.059,0.017-0.119,0.017-0.179c0-0.046-0.012-0.09-0.014-0.136C70.438,29.021,72.899,26.809,72.899,23.447z M62.634,87.509  c-0.378,0.396-0.876,0.614-1.404,0.614h-2.653c-0.528,0-1.026-0.218-1.404-0.614c-0.412-0.432-0.631-1.033-0.602-1.649l2.311-48.851  h2.042l2.311,48.852C63.265,86.476,63.046,87.077,62.634,87.509z M57.121,19.375c0.383-0.402,0.899-0.624,1.455-0.624h2.653  c0.556,0,1.072,0.222,1.455,0.624c0.372,0.392,0.567,0.9,0.553,1.438l-0.736,4.772h-5.21l-0.723-4.771  C56.553,20.276,56.748,19.767,57.121,19.375z M56.944,27.585h5.917c0.934,0,1.697,0.738,1.739,1.662l-0.893,4.902  c-0.09,0.498-0.523,0.859-1.029,0.859h-5.552c-0.506,0-0.939-0.361-1.03-0.859l-0.892-4.902  C55.247,28.323,56.011,27.585,56.944,27.585z M47.104,23.447c0,3.305,2.377,5.502,6.114,5.737c-0.002,0.048-0.014,0.094-0.014,0.143  c0,0.06,0.006,0.12,0.017,0.179l0.496,2.73c-4.022,0.064-6.612,2.305-6.612,5.755c0,2.933,1.913,5.502,4.637,6.417l0.079,3.879  c-9.212-0.531-16.544-8.193-16.544-17.536c0-9.352,7.345-17.02,16.568-17.538l0.011,3.78C49.063,17.87,47.104,20.45,47.104,23.447z"/></svg>