<svg xmlns="http://www.w3.org/2000/svg" xmlns:xlink="http://www.w3.org/1999/xlink" version="1.1" x="0px" y="0px" viewBox="0 0 100 100" style="enable-background:new 0 0 100 100;" xml:space="preserve"><path d="M85.6,94.4l-9-18.4c4-5.5,6.1-11.9,6.1-18.7c0-14.8-10-27.4-24.3-30.9c-0.9-0.3-1.9-0.4-3-0.6c-0.1,0-0.1,0-0.2,0l0.9-21.6  c0-0.3-0.1-0.7-0.4-1s-0.6-0.4-0.9-0.4H47c-0.3,0-0.7,0.1-0.9,0.4c-0.3,0.3-0.4,0.6-0.4,1l0.9,21.6c-0.8,0.1-1.5,0.2-2.2,0.4l-0.3,0  c-0.3,0.1-0.5,0.1-0.7,0.1C29.1,29.8,19,42.5,19,57.2c0,6.8,2.1,13.2,6.1,18.7l-9.1,18.4c-0.2,0.4-0.2,0.9,0.1,1.2  c0.3,0.4,0.6,0.6,1.1,0.6h21.6c0.6,0,1.2-0.5,1.3-1.1l2.8-28.5c0.1-0.5-0.2-1-0.6-1.2l-10-6.3l6-8.3l8.2,2.1L43.8,81  c0,0.3,0.1,0.6,0.3,0.9l5.8,8c0.3,0.3,0.6,0.5,1,0.5s0.8-0.2,1-0.5l5.8-8c0.2-0.3,0.3-0.6,0.3-0.9l-2.7-28.3l8.2-2.1l6,8.3l-10,6.3  c-0.4,0.3-0.6,0.7-0.6,1.2l2.8,28.5c0.1,0.6,0.6,1.1,1.3,1.1h21.6c0.4,0,0.8-0.3,1.1-0.6C85.8,95.2,85.8,94.7,85.6,94.4z M53.5,5.3  l-0.9,21.4L52,38.3h-2.2l-0.6-11.6l0,0L48.4,5.3C48.4,5.3,53.5,5.3,53.5,5.3z M64,93.7l-2.6-26.5l10.4-6.6c0.3-0.2,0.5-0.5,0.6-0.8  c0.1-0.3,0-0.7-0.2-1l-7.2-10.1c-0.3-0.4-0.8-0.6-1.3-0.5l-10.1,2.5c-0.6,0.1-1,0.7-1,1.3l2.8,28.9l-4.5,6.2l-4.5-6.2L49.2,52  c0.1-0.6-0.3-1.2-1-1.3l-10.1-2.5c-0.5-0.1-1,0.1-1.3,0.5l-7.3,10c-0.2,0.3-0.3,0.6-0.2,1c0.1,0.3,0.3,0.6,0.6,0.8l10.4,6.6  l-2.6,26.5H19.3l8.5-17.2c0.2-0.4,0.2-1-0.1-1.3c-3.9-5.1-6-11.3-6-17.8c0-13.6,9.2-25.3,22.4-28.5c0.2-0.1,0.4-0.1,0.6-0.1l0.3-0.1  c0.6-0.1,1.2-0.3,1.8-0.3l0.4,11.4c0.1,0.7,0.6,1.2,1.3,1.2h4.6c0.7,0,1.2-0.5,1.3-1.2l0.6-11.4c1,0.1,1.9,0.3,2.7,0.5  C71,32,80.1,43.7,80.1,57.2c0,6.5-2.1,12.7-6,17.8c-0.3,0.4-0.3,0.9-0.1,1.3l8.5,17.2L64,93.7L64,93.7z"></path></svg>