<svg xmlns="http://www.w3.org/2000/svg" xmlns:xlink="http://www.w3.org/1999/xlink" xmlns:sketch="http://www.bohemiancoding.com/sketch/ns" viewBox="0 0 44 67.5" version="1.1" x="0px" y="0px"><title>33 - 300 (Solid)</title><desc>Created with Sketch.</desc><g stroke="none" stroke-width="1" fill="none" fill-rule="evenodd" sketch:type="MSPage"><g sketch:type="MSLayerGroup" transform="translate(-1.000000, 0.000000)" fill="#000000"><path d="M31.362,2.068 C27.979,0.751 24.001,0.084 19.537,0.084 C10.227,0.084 2.014,2.935 1.668,3.057 C1.271,3.196 1.003,3.571 1,3.993 C0.997,4.415 1.259,4.793 1.655,4.938 C5.165,6.228 6,9.136 6.032,9.254 C6.046,9.306 6.065,9.356 6.086,9.406 L6.352,10.004 L9.666,8.828 C10.312,8.622 24.81,4.134 31.651,10.012 C31.868,10.189 37.414,14.79 39.036,21.666 L40.269,27.378 L44.1,26.995 C44.642,26.94 45.041,26.462 44.997,25.919 C43.377,5.972 31.786,2.195 31.362,2.068" sketch:type="MSShapeGroup"/><path d="M30.367,11.545 C24.338,6.367 10.44,10.68 10.302,10.724 L7.166,11.836 L9.411,16.887 C13.335,13.648 17.93,13 20.922,13 C23.052,13 24.507,13.317 24.665,13.353 L24.665,13.354 C25.971,13.636 36.526,16.292 35.817,27.823 L38.266,27.578 L37.085,22.106 C35.621,15.902 30.419,11.587 30.367,11.545" sketch:type="MSShapeGroup"/><path d="M24.221,15.304 C24.165,15.291 22.852,15 20.922,15 C16.906,15 9.65,16.28 6.1,24.841 C5.669,25.603 1.613,32.846 1.028,36.042 C0.938,36.53 1.065,37.023 1.376,37.396 C1.691,37.774 2.175,38 2.67,38 C3.229,38 3.729,37.728 4.043,37.254 C4.31,36.852 5.479,35.594 6.419,34.583 C8.086,32.79 8.841,31.957 9.069,31.511 L9.191,31.269 C9.651,30.352 9.979,29.78 10.945,29.583 C11.259,29.583 12.902,29.709 16.454,32.005 L15.346,33.156 C13.886,34.42 11.223,35.073 10.06,35.002 C9.658,34.978 9.307,35.181 9.121,35.523 C7.337,38.811 6.184,41.477 5.264,44.437 L3.045,51.579 C2.969,51.826 2.99,52.093 3.106,52.323 C3.646,53.404 4.681,54 6.018,54 C7.178,54 8.21,53.562 8.324,53.513 C8.429,53.467 8.525,53.403 8.608,53.324 L21.043,41.612 C22.803,42.949 24.819,43.626 27.053,43.627 C30.076,43.627 32.391,42.352 32.488,42.298 C32.902,42.065 33.097,41.574 32.953,41.122 C32.514,39.741 32.133,38.603 31.804,37.668 C31.344,36.361 32.084,34.198 32.737,32.29 C33.191,30.962 33.621,29.707 33.748,28.581 C35.012,17.343 24.282,15.313 24.221,15.304 L24.221,15.304 Z M29,28 C28.447,28 28,27.553 28,27 C28,23.141 24.859,20 21,20 C20.447,20 20,19.553 20,19 C20,18.447 20.447,18 21,18 C25.963,18 30,22.037 30,27 C30,27.553 29.553,28 29,28 L29,28 Z" sketch:type="MSShapeGroup"/></g></g></svg>