<svg xmlns="http://www.w3.org/2000/svg" xmlns:xlink="http://www.w3.org/1999/xlink" version="1.1" x="0px" y="0px" viewBox="0 0 100 125" enable-background="new 0 0 100 100" xml:space="preserve"><g><path d="M51.6,33.9C42.2,48.2,10.4,75,10.4,75c-2.9,5.1-5.2,18.6-5.2,18.6l53.1-53.1L51.6,33.9z"/><path d="M6.5,95c0,0,13.5-2.3,18.6-5.2c0,0,26.9-31.8,41.2-41.2l-6.7-6.7L6.5,95z"/><path d="M59.5,27c-2.4,0-4.6,0.7-6.1,1.5c-1.5,0.7-1.8,2.7-0.6,3.8l15.2,15.2c0.5,0.5,1.1,0.7,1.7,0.7c0.8,0,1.6-0.4,2-1.1   c2-3.2,4.2-9.2-2.3-15.6C65.9,28.1,62.4,27,59.5,27z"/><path d="M78,15C77.9,15,77.9,15,78,15l-12,12c1.6,0.8,3.1,2,4.5,3.4c1.2,1.2,2.1,2.4,2.9,3.6l11.7-11.8c0,0,0.2-2.4-2.3-4.8   C80.6,15.1,78.5,15,78,15z"/><path d="M92.4,7.4c-3.2-3.2-8.3-3.2-11.4,0c-1.7,1.7-2.4,3.9-2.3,6c1.1,0.1,3.2,0.7,5.3,2.8c1.9,1.9,2.5,3.8,2.7,5   c2.1,0,4.2-0.8,5.8-2.4C95.6,15.6,95.6,10.5,92.4,7.4z"/></g></svg>