<svg xmlns="http://www.w3.org/2000/svg" xmlns:xlink="http://www.w3.org/1999/xlink" version="1.1" x="0px" y="0px" viewBox="0 0 48.03 74.7125" enable-background="new 0 0 48.03 59.77" xml:space="preserve"><g><path d="M13.01,37c-0.55,0-1,0.45-1,1s0.45,1,1,1c1.65,0,3,1.35,3,3v12c0,0.55,0.45,1,1,1s1-0.45,1-1V42   C18.01,39.24,15.77,37,13.01,37z"/><path d="M40.64,28.22c0.03-0.27,0.05-0.54,0.08-0.81l6.93-5.56c0.28-0.22,0.42-0.58,0.36-0.93c-0.05-0.35-0.29-0.65-0.63-0.78   l-8.2-3.19c-0.04-0.1-0.08-0.2-0.12-0.29l2.42-8.86c0.09-0.34,0-0.71-0.25-0.97c-0.25-0.25-0.62-0.35-0.96-0.26L31.77,8.8   c-0.88-0.47-1.81-0.85-2.78-1.14l1.18-3.64c0.15-0.47-0.06-0.98-0.5-1.2l-5.41-2.71c-0.28-0.14-0.61-0.14-0.89,0l-5.41,2.71   c-0.44,0.22-0.66,0.73-0.5,1.2l1.22,3.76c-0.83,0.27-1.64,0.62-2.41,1.02L7.76,6.56C7.42,6.47,7.05,6.57,6.8,6.82   C6.55,7.08,6.45,7.45,6.54,7.79l2.31,8.46c0.03,0.11,0.08,0.21,0.15,0.3c-0.07,0.15-0.12,0.3-0.19,0.45   c-0.11,0.01-0.21,0.02-0.31,0.06l-7.86,3.06c-0.33,0.13-0.57,0.43-0.63,0.78c-0.05,0.35,0.08,0.71,0.36,0.93l6.61,5.3   c0.09,0.08,0.2,0.13,0.31,0.17c0.03,0.3,0.05,0.6,0.09,0.9c0.44,3.51,0.94,6,1.45,7.37c0.04,0.12,3.84,12.34-2.53,18.71l-1.18,1.18   l1.6,0.48c1.25,0.38,12.23,3.69,14.25,3.77l1.04,0.04V46.29c0-0.16,0.13-0.29,0.29-0.29h3.41c0.16,0,0.29,0.13,0.29,0.29v13.47   l1.04-0.04c2.02-0.08,13.01-3.39,14.25-3.77l1.6-0.48l-1.18-1.18c-6.36-6.36-2.57-18.59-2.54-18.66   C39.71,34.22,40.2,31.72,40.64,28.22z M28.01,28.12c1.92-0.64,4.28-1.54,6.09-2.58c0.09,0.14,0.21,0.39,0.32,0.81   c0.43,1.76-0.33,3.63-1.89,4.67c-1.34,0.9-2.86,1.52-4.51,1.86V28.12z M20.01,32.96c-1.82-0.32-3.48-0.97-4.93-1.93   c-1.56-1.04-2.32-2.92-1.89-4.67c0.1-0.42,0.22-0.67,0.32-0.81c1.91,1.11,4.45,2.05,6.5,2.71V32.96z M22.01,34.08v-7.29V26   c0.03-0.07,0.07-0.15,0.11-0.21c0.01-0.02,0.02-0.03,0.03-0.05c0.06-0.09,0.13-0.16,0.2-0.23c0.01-0.01,0.02-0.02,0.03-0.03   c0.08-0.07,0.16-0.13,0.24-0.18c0.01,0,0.01-0.01,0.02-0.01c0.09-0.05,0.18-0.1,0.27-0.14c0,0,0,0,0.01,0   c0.37-0.16,0.76-0.19,1.01-0.19c0,0,0,0,0.01,0l0.11,0.01l0.09-0.01c0,0,0,0,0.01,0c0.02,0,0.07-0.01,0.15-0.01   c0.55,0,1.24,0.15,1.63,0.8c0,0.01,0.01,0.01,0.01,0.02c0.04,0.06,0.07,0.14,0.1,0.21v0.69v7.98v2.83c0,0.22-0.13,0.43-0.35,0.56   l-1.65,1.04l-1.65-1.04c-0.22-0.14-0.35-0.35-0.35-0.56V34.08z M26.96,23.91c-0.16-0.15-0.34-0.27-0.52-0.39   c-0.03-0.02-0.07-0.04-0.1-0.06c-0.16-0.09-0.33-0.17-0.5-0.24c-0.05-0.02-0.09-0.04-0.14-0.05c-0.18-0.06-0.36-0.11-0.55-0.14   c-0.04-0.01-0.09-0.02-0.13-0.03c-0.23-0.04-0.48-0.06-0.73-0.06c-0.12,0-0.22,0-0.29,0.01c-0.04,0-0.09,0-0.15,0   c-0.1,0-0.25,0.01-0.42,0.02c-0.08,0.01-0.17,0.02-0.26,0.03c-0.05,0.01-0.1,0.02-0.15,0.03c-0.1,0.02-0.21,0.04-0.32,0.07   c-0.06,0.01-0.11,0.03-0.17,0.05c-0.11,0.03-0.22,0.07-0.33,0.12c-0.07,0.03-0.13,0.05-0.19,0.08c-0.13,0.06-0.25,0.13-0.38,0.2   c-0.12,0.07-0.23,0.15-0.34,0.24c-0.07,0.05-0.14,0.1-0.2,0.15c-2.6-3.82-5.48-5.29-8.96-5.76c0.55-0.37,1.09-0.73,1.59-1.04   C15.92,15.8,19.77,15,24.01,15s8.09,0.8,10.29,2.14c0.51,0.31,1.04,0.67,1.59,1.04C32.43,18.65,29.56,20.11,26.96,23.91z    M35.34,15.43C32.81,13.89,28.68,13,24.01,13s-8.79,0.89-11.33,2.43c-0.42,0.26-0.86,0.55-1.31,0.85c1.34-2.43,3.23-4.32,5.65-5.64   c0.91-0.49,1.88-0.87,2.89-1.15c0.01,0,0.02,0,0.02,0c0.08,0,0.17-0.01,0.25-0.03c1.69-0.44,3.42-0.58,5.1-0.46   c0.16,0.01,0.33,0.01,0.49,0.03c0.41,0.04,0.8,0.12,1.2,0.2c1.41,0.27,2.76,0.73,4,1.4c0.09,0.05,0.16,0.1,0.25,0.15   c0.53,0.3,1.02,0.63,1.5,0.98c0.1,0.08,0.21,0.15,0.3,0.23c0.19,0.15,0.36,0.3,0.54,0.46c0.13,0.11,0.25,0.22,0.37,0.33   c0.16,0.15,0.32,0.31,0.47,0.47c0.13,0.14,0.26,0.27,0.38,0.41c0.14,0.15,0.27,0.31,0.4,0.47c0.14,0.17,0.27,0.35,0.4,0.53   c0.11,0.14,0.21,0.28,0.32,0.43c0.2,0.3,0.4,0.61,0.58,0.93c0.03,0.06,0.07,0.12,0.1,0.18c0.01,0.02,0.02,0.05,0.03,0.07   C36.2,15.98,35.76,15.69,35.34,15.43z M45.05,21.37l-4.22,3.39c0-0.12-0.01-0.24-0.02-0.36c0-0.14-0.01-0.28-0.02-0.42   c-0.02-0.32-0.04-0.63-0.07-0.94c-0.01-0.1-0.02-0.21-0.03-0.31c-0.04-0.33-0.08-0.66-0.13-0.99c-0.02-0.1-0.04-0.2-0.05-0.3   c-0.05-0.31-0.11-0.63-0.18-0.94c-0.03-0.14-0.07-0.29-0.1-0.43c-0.05-0.21-0.09-0.42-0.15-0.62L45.05,21.37z M39.1,8.94   l-1.42,5.19c-0.02-0.04-0.05-0.07-0.07-0.1c-0.15-0.22-0.31-0.43-0.47-0.65c-0.12-0.16-0.24-0.32-0.36-0.47   c-0.18-0.22-0.36-0.43-0.54-0.63c-0.12-0.14-0.25-0.27-0.37-0.4c-0.2-0.21-0.4-0.41-0.61-0.6c-0.13-0.12-0.26-0.23-0.39-0.35   c-0.22-0.19-0.44-0.38-0.68-0.56c-0.04-0.03-0.08-0.07-0.12-0.1L39.1,8.94z M19.61,4.22l4.2-2.1l4.2,2.1l-0.96,2.97   c-0.02,0-0.04,0-0.06-0.01c-0.92-0.16-1.85-0.24-2.8-0.24l-0.16,0l-0.18,0c-1.1,0-2.18,0.11-3.24,0.32L19.61,4.22z M13.82,10.22   c-1.4,0.96-2.61,2.1-3.61,3.39L8.93,8.94L13.82,10.22z M6.59,24.27l-3.62-2.9l4.29-1.67C6.88,21.17,6.66,22.69,6.59,24.27z    M37.29,34.97c-0.17,0.52-3.78,12.15,1.95,19.52c-3.84,1.15-8.92,2.59-11.22,3.07V46.29c0-1.27-1.03-2.29-2.29-2.29h-3.41   c-1.27,0-2.29,1.03-2.29,2.29v11.27c-2.3-0.49-7.38-1.93-11.22-3.07c5.73-7.37,2.11-19,1.93-19.57c-0.47-1.25-0.94-3.65-1.35-6.96   c-0.35-2.77-0.17-5.49,0.5-7.95c4.3,0.12,7.29,1.26,10.14,5.96v0.17c-1.84-0.62-4.28-1.55-5.94-2.6l-0.25-0.16h-0.29   c-0.28,0-1.7,0.12-2.27,2.49c-0.63,2.57,0.47,5.31,2.72,6.81c1.75,1.17,3.75,1.94,5.94,2.28c0.03,0.01,0.06,0,0.09,0.01v2.5   c0,0.91,0.48,1.75,1.29,2.26l1.64,1.03c0.29,0.27,0.67,0.41,1.07,0.41s0.78-0.15,1.07-0.41l1.64-1.03c0.81-0.5,1.29-1.35,1.29-2.26   v-2.57c2.07-0.37,3.96-1.11,5.62-2.22c2.25-1.51,3.35-4.24,2.72-6.81c-0.57-2.35-1.97-2.49-2.34-2.49c0,0-0.01,0-0.01,0l-0.26,0.02   l-0.22,0.14c-1.51,0.96-3.66,1.82-5.53,2.46v-0.03c2.85-4.69,5.83-5.84,10.12-5.96c0.03,0.12,0.08,0.24,0.11,0.36   c0.03,0.11,0.06,0.23,0.09,0.34c0.12,0.53,0.22,1.07,0.29,1.62c0.02,0.17,0.05,0.34,0.07,0.51c0.06,0.55,0.11,1.1,0.12,1.66   c0,0.14,0,0.28,0.01,0.42c0.01,0.61,0,1.23-0.05,1.87c-0.03,0.39-0.07,0.79-0.12,1.18C38.24,31.27,37.77,33.68,37.29,34.97z"/><path d="M35.01,37c-2.76,0-5,2.24-5,5v12c0,0.55,0.45,1,1,1s1-0.45,1-1V42c0-1.65,1.35-3,3-3c0.55,0,1-0.45,1-1S35.57,37,35.01,37z   "/></g></svg>