<svg xmlns="http://www.w3.org/2000/svg" xmlns:xlink="http://www.w3.org/1999/xlink" version="1.1" x="0px" y="0px" viewBox="0 0 100 125" enable-background="new 0 0 100 100" xml:space="preserve"><g><path fill-rule="evenodd" clip-rule="evenodd" d="M46.408,25.247c0.088-5.702,0.178-11.403,0.266-17.11   C56.966,7.27,66.481,9.18,74.948,15.435c-0.105,0.211-0.22,0.442-0.338,0.672c-1.939,3.768-3.876,7.537-5.818,11.302   c-0.175,0.336-0.398,0.654,0.25,0.867c2.237-4.063,4.483-8.142,6.758-12.267c9.303,6.882,14.035,16.372,16.084,27.497   c-2.818,0.586-5.641,1.173-8.461,1.76c-0.036,0.645,0.331,0.497,0.662,0.435c2.414-0.456,4.83-0.91,7.244-1.361   c0.231-0.043,0.464-0.068,0.818-0.119c0.25,1.798,0.521,3.528,0.732,5.267c0.53,4.387,0.085,8.762-0.201,13.14   c-0.245,3.776-0.297,7.554,0.497,11.283c0.152,0.718,0.442,1.423,0.784,2.076c0.168,0.325,0.556,0.601,0.906,0.761   c0.688,0.314,0.87,0.645,0.582,1.336c-0.635,1.516-2.997,2.324-4.37,1.393c-0.888-0.604-1.722-1.334-2.431-2.141   c-4.696-5.337-8.529-11.242-11.327-17.787c-0.567-1.334-0.789-2.814-1.2-4.219c-1.128-3.853-2.701-7.504-4.958-10.845   c-1.935-2.863-4.227-5.38-7.082-7.353c-4.221-2.919-8.96-3.955-14.02-3.856c-2.53,0.049-5.052,0.135-7.534,0.689   c-3.352,0.75-6.31,2.357-9.109,4.263c-2.411,1.64-4.743,3.393-7.112,5.093c-0.331,0.237-0.675,0.458-1.077,0.73   c-2.389-3.394-5.518-5.917-9.125-7.847c-3.597-1.924-7.438-3.117-11.658-3.624c3.846-5.229,8.76-9.269,13.71-13.375   c2.863,3.751,5.677,7.439,8.492,11.127c0.042-0.027,0.082-0.054,0.124-0.081c-2.457-3.982-4.914-7.964-7.412-12.013   c4.141-2.922,7.977-6.271,12.878-7.83c3.941-1.253,8.035-1.769,12.139-2.165c0.185-0.019,0.374,0.018,0.613,0.032   c0.418,5.664,0.834,11.302,1.25,16.939C46.296,25.227,46.352,25.237,46.408,25.247z"/><path fill-rule="evenodd" clip-rule="evenodd" d="M72.468,55.667c-0.351-0.021-0.692-0.123-0.984-0.044   c-1.185,0.321-2.358,0.677-3.525,1.059c-0.636,0.209-0.942,0.766-0.827,1.372c0.194,1.005,0.348,2.088,0.847,2.948   c1.456,2.517,3.065,4.95,4.642,7.397c0.415,0.646,0.932,1.227,1.373,1.803c-0.512,0.73-1.024,1.424-1.5,2.144   c-1.599,2.435-3.919,3.638-6.76,3.671c-1.84,0.023-3.729-0.097-5.519-0.5c-3.635-0.82-7.13-0.459-10.605,0.676   c-4.343,1.418-8.333,3.568-12.066,6.151c-4.122,2.852-8.119,5.883-12.171,8.836c-0.602,0.439-1.206,0.874-1.902,1.379   c0.579-1.63,1.154-3.129,1.645-4.654c2.111-6.558,3.999-13.181,5.49-19.909c0.145-0.658,0.495-0.74,1.035-0.796   c3.223-0.328,6.318-1.081,9.039-2.942c1.817-1.244,3.201-2.842,3.851-4.995c0.032-0.108,0.043-0.224,0.08-0.417   c-5.098,0.276-10.14,0.551-15.24,0.827c-0.253,1.842-0.496,3.651-0.76,5.46c-0.037,0.246-0.114,0.563-0.289,0.703   c-2.415,1.903-4.85,3.782-7.279,5.667c-0.082-0.064-0.163-0.13-0.245-0.196c0.583-2.277,1.11-4.569,1.76-6.828   c1.68-5.837,3.929-11.429,7.37-16.479c2.703-3.964,6.001-7.286,10.366-9.43c8.654-4.252,22.912-2.941,29.639,9.997   C71.191,50.99,72.284,54.022,72.468,55.667z"/></g><text x="0" y="115" fill="#000000" font-size="5px" font-weight="bold" font-family="'Helvetica Neue', Helvetica, Arial-Unicode, Arial, Sans-serif">Created by Orun Bhuiyan</text><text x="0" y="120" fill="#000000" font-size="5px" font-weight="bold" font-family="'Helvetica Neue', Helvetica, Arial-Unicode, Arial, Sans-serif">from the Noun Project</text></svg>