<svg xmlns="http://www.w3.org/2000/svg" xmlns:xlink="http://www.w3.org/1999/xlink" version="1.1" x="0px" y="0px" viewBox="0 0 100 125" style="enable-background:new 0 0 100 100;" xml:space="preserve"><g><g><g><g><g><path d="M30.964,90.935c-0.368,0-0.736-0.074-1.085-0.224c-0.758-0.325-1.326-0.965-1.558-1.757l-0.301-1.023       c-0.362-1.232,0.127-2.526,1.215-3.222c5.894-3.776,10.478-13.18,10.083-16.128c-1.804-3.45-2.636-7.069-2.476-10.762       c-0.002-11.49,9.417-20.908,20.994-20.908c6.72,0,13.084,3.255,17.025,8.707c0.646,0.896,0.445,2.146-0.449,2.793       c-0.896,0.647-2.146,0.446-2.793-0.449c-3.19-4.415-8.344-7.051-13.783-7.051c-9.372,0-16.996,7.624-16.996,16.995       c-0.135,3.146,0.587,6.162,2.145,9.051c0.081,0.15,0.143,0.312,0.183,0.478c0.978,4.027-2.646,11.667-7.428,16.88l14.707-7.581       c0.921-0.475,1.512-1.413,1.543-2.448l0.291-9.802c0.023-0.793,0.514-1.497,1.25-1.795l4.854-1.962       c2.001-0.808,4.314,0.079,5.262,2.019c0.051,0.104,0.093,0.212,0.125,0.323l4.221,14.609l7.12,3.183       c2.627-0.872,5.526-2.01,6.479-2.625l0.052-0.197c-1.745-0.456-4.029-1.397-5.344-3.32c-1.797-2.629-1.099-5.828-0.367-7.784       l-2.556-1.622c-0.235-0.149-0.438-0.347-0.593-0.578l-4.254-6.376c-0.33-0.496-0.423-1.112-0.252-1.683       c0.17-0.571,0.586-1.036,1.134-1.269l4.631-1.967c0.022-0.729,0.443-1.418,1.147-1.749c1.001-0.473,2.191-0.04,2.661,0.958       l0.495,1.053c0.231,0.492,0.253,1.058,0.059,1.565c-0.193,0.508-0.586,0.914-1.086,1.127l-4.122,1.751l2.68,4.017l3.665,2.325       c0.9,0.57,1.194,1.747,0.669,2.675c-0.491,0.88-1.664,3.755-0.608,5.299c0.954,1.396,3.774,1.925,4.688,2       c0.59,0.049,1.131,0.356,1.473,0.84s0.454,1.094,0.303,1.666l-0.729,2.757c-0.226,0.851-0.603,2.273-9.729,5.183       c-0.47,0.149-0.976,0.12-1.424-0.079l-8.671-3.875c-0.537-0.24-0.941-0.705-1.105-1.271l-4.4-15.231       c-0.035-0.024-0.082-0.03-0.124-0.013l-3.643,1.473l-0.252,8.496c-0.074,2.489-1.495,4.744-3.709,5.885L32.224,90.627       C31.828,90.832,31.396,90.935,30.964,90.935z"/></g></g><g><g><path d="M30.134,55.191c-0.312,0-0.621-0.146-0.815-0.42c-2.518-3.538-3.849-7.71-3.849-12.066       c0-11.485,9.344-20.829,20.829-20.829c6.584,0,12.852,3.166,16.768,8.469c0.328,0.444,0.233,1.07-0.211,1.398       c-0.445,0.328-1.07,0.233-1.398-0.211c-3.54-4.794-9.207-7.656-15.158-7.656c-10.383,0-18.829,8.446-18.829,18.829       c0,3.938,1.202,7.709,3.478,10.906c0.32,0.45,0.216,1.074-0.234,1.395C30.537,55.131,30.334,55.191,30.134,55.191z"/></g></g><g><g><path d="M28.653,60.168c-0.524,0-1.029-0.206-1.404-0.576c-4.911-4.846-7.616-11.314-7.616-18.214       c0-14.108,11.478-25.586,25.586-25.586c10.879,0,19.012,4.284,22.899,12.063c0.477,0.955,0.121,2.115-0.809,2.638l-7.599,4.271       c-0.709,0.398-1.589,0.327-2.226-0.178c-1.854-1.474-7.414-5.297-10.822-5.297c-1.474,0-2.936,0.24-4.32,0.704l7.909,9.712       c0.337,0.414,0.495,0.945,0.438,1.477c-0.057,0.53-0.323,1.017-0.741,1.35l-3.703,2.955c-0.853,0.679-2.09,0.553-2.785-0.285       l-8.139-9.796c-1.448,2.199-2.228,4.777-2.228,7.452c0,2.276,1.852,6.567,2.5,7.891c0.338,0.689,0.251,1.513-0.224,2.116       l-5.145,6.539c-0.353,0.448-0.879,0.724-1.447,0.76C28.737,60.167,28.695,60.168,28.653,60.168z M45.219,19.792       c-11.902,0-21.586,9.684-21.586,21.586c0,5.063,1.727,9.853,4.904,13.704l2.931-3.726c-0.853-1.923-2.374-5.74-2.374-8.498       c0-4.468,1.68-8.727,4.729-11.991c0.393-0.419,0.979-0.651,1.52-0.634c0.574,0.017,1.113,0.279,1.48,0.721l8.461,10.184       l0.592-0.473l-8.288-10.177c-0.374-0.459-0.525-1.061-0.413-1.643c0.113-0.582,0.478-1.084,0.996-1.37       c2.585-1.43,5.522-2.186,8.493-2.186c4.381,0,9.876,3.63,12.229,5.346l4.704-2.645C59.237,21.266,51.316,19.792,45.219,19.792z       "/></g></g><g><g><path d="M62.413,55.124c-0.43,0-0.819-0.278-0.952-0.698c-0.147-0.466,0.063-0.971,0.499-1.192l16.704-8.514       c0.35-0.179,0.774-0.136,1.08,0.111c0.135,0.107,3.28,2.69,2.453,6.803c-0.084,0.415-0.42,0.732-0.839,0.793l-18.803,2.688       C62.508,55.121,62.46,55.124,62.413,55.124z M78.934,46.827l-10.705,5.456l12.097-1.729       C80.427,48.785,79.508,47.469,78.934,46.827z"/></g></g><g><g><path d="M53.1,76.674c-0.209,0-0.42-0.065-0.6-0.2L41.617,68.3c-0.441-0.332-0.53-0.959-0.199-1.4s0.959-0.529,1.4-0.199       l10.883,8.174c0.441,0.332,0.53,0.959,0.199,1.4C53.704,76.536,53.403,76.674,53.1,76.674z"/></g></g><g><g><path d="M53.626,65.25c-0.374,0-0.733-0.211-0.904-0.571c-0.237-0.499-0.024-1.096,0.475-1.332l17.625-8.367       c0.5-0.236,1.096-0.024,1.332,0.475c0.237,0.499,0.024,1.096-0.475,1.332l-17.625,8.367       C53.915,65.219,53.77,65.25,53.626,65.25z"/></g></g></g></g></g><text x="0" y="115" fill="#000000" font-size="5px" font-weight="bold" font-family="'Helvetica Neue', Helvetica, Arial-Unicode, Arial, Sans-serif">Created by Henry Ryder</text><text x="0" y="120" fill="#000000" font-size="5px" font-weight="bold" font-family="'Helvetica Neue', Helvetica, Arial-Unicode, Arial, Sans-serif">from the Noun Project</text></svg>