<svg xmlns="http://www.w3.org/2000/svg" xmlns:xlink="http://www.w3.org/1999/xlink" version="1.1" x="0px" y="0px" viewBox="0 0 100 125" style="enable-background:new 0 0 100 100;" xml:space="preserve"><path d="M12.5,87.3c1.6,1.6,3.6,2.4,5.7,2.4c2.1,0,4.1-0.8,5.7-2.4l8.9-8.9l1.4,1.4c0.2,0.2,0.4,0.3,0.7,0.3s0.5-0.1,0.7-0.3l6-6  c0.4-0.4,0.4-1,0-1.4L39,69.8l11.1-9.1l11.1,9.1l-2.6,2.6c-0.4,0.4-0.4,1,0,1.4l6,6c0.2,0.2,0.4,0.3,0.7,0.3s0.5-0.1,0.7-0.3  l1.4-1.4l8.9,8.9c1.6,1.6,3.6,2.4,5.7,2.4c2.1,0,4.1-0.8,5.7-2.4c3.1-3.1,3.1-8.2,0-11.4L78.8,67l1.4-1.4c0.4-0.4,0.4-1,0-1.4l-6-6  c-0.2-0.2-0.4-0.3-0.7-0.3S73,58,72.8,58.2l-2.7,2.7L62,50.9l27.4-22.6c0.4-0.3,0.5-0.9,0.2-1.3c-4.3-6.1-2.8-12.6-2.8-12.6  c0.1-0.3,0-0.7-0.3-0.9l-0.2-0.2c-0.2-0.2-0.6-0.3-0.9-0.3c-0.1,0-6.5,1.5-12.6-2.8c-0.4-0.3-1-0.2-1.3,0.2l-21.3,26l-21.3-26  c-0.3-0.4-0.9-0.5-1.3-0.2C21.3,14.4,14.9,13,14.8,13c-0.3-0.1-0.7,0-0.9,0.3l-0.2,0.2c-0.2,0.2-0.3,0.6-0.3,0.9  c0,0.1,1.4,6.5-2.8,12.6c-0.3,0.4-0.2,1,0.2,1.3l27.4,22.6L30,60.9l-2.7-2.7c-0.4-0.4-1-0.4-1.4,0l-6,6c-0.4,0.4-0.4,1,0,1.4  l1.4,1.4l-8.9,8.9C9.4,79.1,9.4,84.2,12.5,87.3z M37.6,68.4L35.2,66l9.6-9.6l3.7,3L37.6,68.4z M86.3,77.3c2.4,2.4,2.4,6.2,0,8.5  c-2.4,2.4-6.2,2.4-8.5,0L68.8,77l3.6-3.6l8,8c0.2,0.2,0.5,0.3,0.7,0.3s0.5-0.1,0.7-0.3c0.4-0.4,0.4-1,0-1.4l-8-8l3.6-3.6L86.3,77.3z   M73.5,60.3l4.6,4.6l-1.4,1.4c0,0,0,0,0,0s0,0,0,0l-10,10c0,0,0,0,0,0s0,0,0,0l-1.4,1.4l-4.6-4.6L73.5,60.3z M72.4,12.3  c5,3.2,10,3.1,12.3,2.8c-0.3,2.2-0.4,7.2,2.8,12.3l-26.7,22l-4-4.9l18.7-18.7c0.4-0.4,0.4-1,0-1.4s-1-0.4-1.4,0L55.5,42.9l-4.1-5  L72.4,12.3z M15.5,15.1c2.2,0.3,7.2,0.4,12.3-2.8l40.9,49.9l-2.3,2.3L26.2,24.4c-0.4-0.4-1-0.4-1.4,0s-0.4,1,0,1.4L65,66l-2.4,2.4  l-49.9-41C15.9,22.4,15.8,17.4,15.5,15.1z M39.7,52.2l3.6,2.9l-9.5,9.5l-2.3-2.3L39.7,52.2z M26.7,60.3l12.8,12.8l-4.6,4.6  L22.1,64.9L26.7,60.3z M22.8,68.4l3.6,3.6l-8,8c-0.4,0.4-0.4,1,0,1.4c0.2,0.2,0.5,0.3,0.7,0.3s0.5-0.1,0.7-0.3l8-8l3.6,3.6l-8.9,8.9  c-2.4,2.4-6.2,2.4-8.5,0c-2.4-2.4-2.4-6.2,0-8.5L22.8,68.4z"/><text x="0" y="115" fill="#000000" font-size="5px" font-weight="bold" font-family="'Helvetica Neue', Helvetica, Arial-Unicode, Arial, Sans-serif">Created by Made</text><text x="0" y="120" fill="#000000" font-size="5px" font-weight="bold" font-family="'Helvetica Neue', Helvetica, Arial-Unicode, Arial, Sans-serif">from the Noun Project</text></svg>