<svg xmlns="http://www.w3.org/2000/svg" xmlns:xlink="http://www.w3.org/1999/xlink" version="1.1" x="0px" y="0px" viewBox="0 0 100 125" enable-background="new 0 0 100 100" xml:space="preserve"><path d="M81.377,58.766c0.028-0.028,0.059-0.056,0.087-0.084c10.198-9.728,3.681-38.303,3.398-39.515  c-0.158-0.678-0.788-1.137-1.482-1.077c-0.692,0.059-1.237,0.617-1.278,1.312c-0.918,15.366-9.014,20.102-11.588,21.221  c-0.913,0.284-1.769,0.681-2.553,1.17C62.777,38.451,56.611,36.51,50,36.51c-6.612,0-12.777,1.941-17.961,5.282  c-0.785-0.49-1.641-0.886-2.554-1.17c-2.574-1.119-10.669-5.854-11.587-21.221c-0.042-0.694-0.587-1.253-1.279-1.312  c-0.693-0.059-1.324,0.399-1.481,1.077c-0.283,1.212-6.8,29.787,3.398,39.515c0.027,0.029,0.058,0.056,0.087,0.084  c-1.21,3.441-1.87,7.141-1.87,10.991c0,1.753,0.141,3.514,0.414,5.241c-0.001,0.015-0.002,0.029-0.002,0.045  c0,1.914,0.167,3.836,0.496,5.714c0.068,0.387,0.296,0.728,0.627,0.939c0.331,0.211,0.735,0.272,1.115,0.171  c6.803-1.829,15.534-1.786,25.646-1.737c3.222,0.016,6.68,0.016,9.902,0c10.11-0.049,18.843-0.092,25.645,1.737  c0.12,0.032,0.242,0.048,0.363,0.048c0.265,0,0.525-0.075,0.752-0.219c0.332-0.212,0.56-0.553,0.627-0.939  c0.33-1.878,0.497-3.8,0.497-5.714c0-0.016-0.002-0.03-0.002-0.045c0.273-1.728,0.413-3.488,0.413-5.241  C83.246,65.906,82.587,62.207,81.377,58.766z M71.404,43.277c0.048-0.015,0.097-0.032,0.143-0.052  c2.34-0.998,9.045-4.718,12.005-15.302c0.293,2.188,0.557,4.672,0.7,7.26c0.586,10.555-1.05,17.983-4.732,21.483  c-0.01,0.01-0.02,0.02-0.03,0.029c-1.513,1.527-3.604,2.404-5.738,2.404c-0.471-0.001-0.946-0.043-1.413-0.125  c-4.39-0.774-7.331-4.975-6.557-9.364C66.312,46.595,68.468,44.168,71.404,43.277z M15.745,35.222  c0.144-2.6,0.408-5.097,0.702-7.297c2.961,10.584,9.665,14.303,12.005,15.301c0.047,0.02,0.095,0.037,0.144,0.052  c2.937,0.891,5.091,3.317,5.623,6.334c0.773,4.39-2.168,8.59-6.557,9.364c-0.468,0.082-0.943,0.125-1.413,0.125h-0.001  c-2.134-0.001-4.226-0.877-5.738-2.404c-0.01-0.01-0.02-0.02-0.03-0.029C16.802,53.172,15.165,45.756,15.745,35.222z M26.248,61.9  L26.248,61.9c0.633,0,1.272-0.057,1.899-0.167c5.91-1.043,9.871-6.698,8.828-12.608c-0.366-2.082-1.309-3.954-2.671-5.446  C38.892,40.907,44.262,39.31,50,39.31c5.737,0,11.108,1.598,15.695,4.369c-1.362,1.492-2.305,3.364-2.672,5.446  c-1.042,5.91,2.918,11.565,8.828,12.608c0.628,0.11,1.267,0.166,1.899,0.167l0,0c1.843,0,3.659-0.486,5.264-1.374  c0.929,2.913,1.432,6.014,1.432,9.23c0,1.269-0.079,2.542-0.236,3.801c-8.441-2.082-19.091-3.222-30.21-3.222  s-21.77,1.14-30.211,3.222c-0.156-1.259-0.236-2.532-0.236-3.801c0-3.217,0.504-6.317,1.433-9.23  C22.589,61.414,24.406,61.899,26.248,61.9z M54.938,77.33c-3.216,0.016-6.66,0.016-9.875,0c-9.2-0.046-17.924-0.088-24.865,1.46  c-0.099-0.795-0.163-1.596-0.199-2.397C28.293,74.29,38.893,73.136,50,73.136s21.707,1.154,30.001,3.257  c-0.035,0.802-0.1,1.603-0.198,2.397C72.86,77.242,64.137,77.285,54.938,77.33z"/><text x="0" y="115" fill="#000000" font-size="5px" font-weight="bold" font-family="'Helvetica Neue', Helvetica, Arial-Unicode, Arial, Sans-serif">Created by Anton Gajdosik</text><text x="0" y="120" fill="#000000" font-size="5px" font-weight="bold" font-family="'Helvetica Neue', Helvetica, Arial-Unicode, Arial, Sans-serif">from the Noun Project</text></svg>