<svg xmlns="http://www.w3.org/2000/svg" xmlns:xlink="http://www.w3.org/1999/xlink" version="1.1" x="0px" y="0px" viewBox="0 0 100 125" enable-background="new 0 0 100 100" xml:space="preserve"><path fill="#000000" d="M69.604,45.59c-0.296-13.33-10.663-18.858-13.231-20.438c-0.188-0.116-0.353-0.222-0.525-0.327L62.256,5  H36.967l6.61,19.635c-0.269,0.158-0.55,0.328-0.85,0.514c-2.568,1.58-12.915,7.11-13.21,20.439  c-0.297,13.329-0.485,13.823,0.898,16.391c1.383,2.567,0.3,7.307,0.103,10.071s-0.491,8.689,3.754,14.712  c4.246,6.022,6.024,7.405,6.024,7.405l1.186-33.175l-8.492-2.271c0,0-1.381-0.199-1.381-0.89c0-0.689,0.89-4.936,0.89-6.021  s-0.197-1.875,0.197-1.875c0.394,0,13.032,2.764,13.032,2.764s1.481,0.395,1.382,2.074c-0.098,1.678-0.59,4.441-1.086,6.22  c-0.493,1.777-1.185,3.555-1.185,3.555s3.273,3.061,3.866,3.257C49.123,67.944,49,67.983,49,67.996v0.006c0,0,0.491,0,0.5-0.002  c0.009,0.002,0.5,0.002,0.5,0.002v-0.006c0-0.013-0.053-0.052,0.365-0.192c0.592-0.196,4.041-3.257,4.041-3.257  s-0.743-1.777-1.237-3.555c-0.493-1.778-1.015-4.542-1.113-6.22c-0.099-1.68,1.368-2.074,1.368-2.074s12.634-2.764,13.028-2.764  c0.396,0,0.193,0.789,0.193,1.875s0.887,5.332,0.887,6.022s-1.383,0.889-1.383,0.889l-8.492,2.271l1.186,33.175  c0,0,1.777-1.383,6.022-7.405c4.246-6.022,3.949-11.947,3.752-14.712c-0.197-2.764-1.283-7.503,0.1-10.071  C70.099,59.411,69.901,58.918,69.604,45.59z"/><text x="0" y="115" fill="#000000" font-size="5px" font-weight="bold" font-family="'Helvetica Neue', Helvetica, Arial-Unicode, Arial, Sans-serif">Created by richard pasqua</text><text x="0" y="120" fill="#000000" font-size="5px" font-weight="bold" font-family="'Helvetica Neue', Helvetica, Arial-Unicode, Arial, Sans-serif">from the Noun Project</text></svg>