<svg xmlns="http://www.w3.org/2000/svg" xmlns:xlink="http://www.w3.org/1999/xlink" version="1.1" x="0px" y="0px" viewBox="0 0 100 125" style="enable-background:new 0 0 100 100;" xml:space="preserve"><style type="text/css">
	.st0{fill:none;stroke:#000000;stroke-width:2;stroke-linecap:round;stroke-linejoin:round;stroke-miterlimit:10;}
	.st1{fill:none;stroke:#000000;stroke-width:2;stroke-miterlimit:10;}
</style><path d="M67.5,31.7l-3.3-1.5c-0.1-1.2-0.4-2.4-0.9-3.5l3.8-7.1c0.2-0.4,0.2-0.8-0.1-1.1c-0.3-0.3-0.7-0.4-1.1-0.3l-7.5,2.3  c-1.4-1-3-1.8-4.7-2.2L53,15.1c-0.1-0.4-0.4-0.7-0.8-0.7c-0.4-0.1-0.8,0.1-1,0.5L49.4,18c-1.8,0.1-3.5,0.6-5.1,1.4l-7.8-3.3  c-0.4-0.2-0.8-0.1-1.1,0.2S35,17,35.1,17.4l3.1,7.4c0,0.1,0.1,0.1,0.1,0.2c-0.6,1-1.1,2.1-1.5,3.3c0,0,0,0,0,0l-5.1,2.5  c-0.4,0.2-0.6,0.6-0.6,1c0,0.4,0.3,0.8,0.7,0.9l4.6,1.5c0.2,1.3,0.6,2.5,1.1,3.6l-3.8,6.7c-0.2,0.4-0.2,0.8,0.1,1.1  c0.2,0.2,0.5,0.4,0.8,0.4c0.1,0,0.2,0,0.3,0l7.7-2.2c0,0,0,0,0.1,0c1.6,1.1,3.4,1.8,5.4,2.1l-1.6,33.1c0,0.9,0.3,1.7,0.9,2.3  c0.6,0.6,1.4,1,2.3,1h1.9c0.9,0,1.7-0.3,2.3-1c0.6-0.6,0.9-1.5,0.9-2.3L53,45.7c1.1-0.2,2.1-0.5,3.1-1l6.8,3.7  c0.1,0.1,0.3,0.1,0.5,0.1c0.2,0,0.5-0.1,0.6-0.2c0.3-0.3,0.4-0.7,0.3-1.1l-2.3-7.5c1-1.5,1.7-3.1,2.1-4.9l3.4-1.2  c0.4-0.1,0.6-0.5,0.7-0.9C68.1,32.3,67.9,31.9,67.5,31.7z M62.3,24.6c-0.5-0.9-1.2-1.7-1.9-2.5l3.9-1.2L62.3,24.6z M37.9,18.9  l4.3,1.8c-0.9,0.7-1.8,1.5-2.5,2.4L37.9,18.9z M36.7,43.3l2-3.5c0.6,0.9,1.3,1.7,2,2.4L36.7,43.3z M52.6,78.9c0,0.3-0.1,0.6-0.3,0.8  s-0.5,0.4-0.8,0.4h-1.9c-0.3,0-0.6-0.1-0.8-0.4s-0.3-0.5-0.3-0.8l1.6-33c0.1,0,0.2,0,0.3,0c0.2,0,0.4,0,0.7,0L52.6,78.9z M58.1,43.5  c0.8-0.6,1.6-1.2,2.3-1.9l1.2,3.8L58.1,43.5z M59.2,34.5c-0.5,0.2-0.8,0.8-0.6,1.3c0.1,0.4,0.5,0.7,0.9,0.7c0.1,0,0.2,0,0.3-0.1  l1.8-0.7c-0.4,1.3-1.1,2.5-1.9,3.6c-1.2,1.5-2.7,2.7-4.4,3.5c-1.6,0.8-3.4,1.2-5.2,1.2c-5.5,0-10.3-3.8-11.6-9.1l1.9,0.6  c0.1,0,0.2,0.1,0.3,0.1c0.4,0,0.8-0.3,0.9-0.7c0.2-0.5-0.1-1.1-0.6-1.3l-6.4-2.1l6.5-3.1c0.5-0.2,0.7-0.8,0.5-1.3  c-0.2-0.5-0.8-0.7-1.3-0.5l-1,0.5c1.7-3.5,5-6.2,8.6-6.9l-1,1.7c-0.3,0.5-0.1,1.1,0.4,1.4c0.5,0.3,1.1,0.1,1.4-0.4l2.8-4.8l1.4,5.4  c0.1,0.5,0.5,0.8,1,0.8c0.1,0,0.2,0,0.3,0c0.5-0.1,0.9-0.7,0.7-1.2l-0.6-2.2c3.8,1.4,6.7,4.6,7.6,8.6l-1.8-0.8  c-0.5-0.2-1.1,0-1.3,0.5c-0.2,0.5,0,1.1,0.5,1.3l5.1,2.3L59.2,34.5z"/><path d="M47.6,27.2c-0.3-0.2-0.8-0.2-1.1,0c-0.3,0.2-0.5,0.6-0.4,1l1.5,7.9c0.1,0.5,0.5,0.8,1,0.8c0.1,0,0.1,0,0.2,0  c0.5-0.1,0.9-0.6,0.8-1.2l-1.1-5.5l4.6,3.2c0.5,0.3,1.1,0.2,1.4-0.2c0.3-0.5,0.2-1.1-0.2-1.4L47.6,27.2z"/></svg>