<svg xmlns="http://www.w3.org/2000/svg" xmlns:xlink="http://www.w3.org/1999/xlink" version="1.1" x="0px" y="0px" viewBox="0 0 100 125" style="enable-background:new 0 0 100 100;" xml:space="preserve"><style type="text/css">
	.st0{fill:none;stroke:#000000;stroke-width:2;stroke-linecap:round;stroke-linejoin:round;stroke-miterlimit:10;}
	.st1{fill:none;stroke:#000000;stroke-width:2;stroke-miterlimit:10;}
</style><path d="M19.1,85.9c1.1,0,2.2-0.4,3.1-1.3l2.3-2.3c0,0,0,0,0,0l5.1-5.1l0.3,0.3c0.2,0.2,0.5,0.3,0.7,0.3s0.5-0.1,0.7-0.3l2.8-2.8  c0.4-0.4,0.4-1,0-1.4l-0.8-0.8L83.5,27c0.3-0.3,0.4-0.8,0.2-1.2c-1.5-3.3,1.4-8.6,1.4-8.7c0.2-0.4,0.1-0.9-0.2-1.2l-0.1-0.1  c-0.3-0.3-0.8-0.4-1.2-0.2c-0.1,0-5.4,2.9-8.7,1.4c-0.4-0.2-0.9-0.1-1.2,0.2L28.2,67.4l-0.8-0.8c-0.4-0.4-1-0.4-1.4,0l-2.8,2.8  c-0.4,0.4-0.4,1,0,1.4l0.3,0.3L23,71.5c0,0,0,0,0,0l-7,7c-1.7,1.7-1.7,4.4,0,6.1C16.9,85.5,18,85.9,19.1,85.9z M24.7,79.2v-6.6  l0.1-0.1l3.3,3.3L24.7,79.2z M32,71.1l-0.4-0.4l50.2-50.2c-0.4,1.7-0.6,3.7-0.1,5.5L32,71.1z M74.8,19.1c1.8,0.6,3.7,0.3,5.5-0.1  L30.1,69.3l-0.4-0.4L74.8,19.1z M26.7,68.7L32,74l-1.4,1.4l-0.3-0.3c0,0,0,0,0,0s0,0,0,0l-5-5L26.7,68.7z M17.4,79.9l5.3-5.3v6.6  l-2,2c-0.9,0.9-2.4,0.9-3.3,0c-0.4-0.4-0.7-1-0.7-1.6S17,80.4,17.4,79.9z"/><text x="0" y="115" fill="#000000" font-size="5px" font-weight="bold" font-family="'Helvetica Neue', Helvetica, Arial-Unicode, Arial, Sans-serif">Created by Made by Made</text><text x="0" y="120" fill="#000000" font-size="5px" font-weight="bold" font-family="'Helvetica Neue', Helvetica, Arial-Unicode, Arial, Sans-serif">from the Noun Project</text></svg>