<svg xmlns="http://www.w3.org/2000/svg" xmlns:xlink="http://www.w3.org/1999/xlink" version="1.1" x="0px" y="0px" viewBox="0 0 100 125" style="enable-background:new 0 0 100 100;" xml:space="preserve"><path d="M88,46.7c-1-12.5-5.8-22-14.1-28.3C57.3,6,32.8,10.9,31.8,11.1c-0.3,0.1-0.5,0.2-0.7,0.5c-0.1,0.3-0.2,0.6-0.1,0.8l3.5,9.8  c-2,0.7-4,1.5-5.6,2.3c-8.3,3.3-14.4,1.9-14.5,1.9c-0.3-0.1-0.7,0-0.9,0.2c-0.2,0.2-0.4,0.6-0.3,0.9c0.7,3.4,1.6,6.4,2.6,9.2  c-1.1,3.3-10,32.4,5.4,52.8c0.2,0.3,0.5,0.4,0.8,0.4c0.1,0,0.2,0,0.2,0C23.1,89.8,41,85.1,48,76.1c0.9,1.1,1.9,2.1,3,3  c8,6.6,19.7,7.6,25.9,7.6c2.4,0,4-0.1,4.2-0.2c0.3,0,0.7-0.2,0.8-0.6s0.1-0.7-0.1-1c-7.4-11.4-5.7-26-5.6-27.1c0,0,0,0,0,0  c0.4-1.9,0.6-4,0.6-6c0-1.1-0.1-2.1-0.2-3.1l10.3-1.1C87.6,47.7,88,47.2,88,46.7z M74.5,56.5c-32.1-5.4-42.2-26.3-44-30.6  c4.1-2,9.9-3.8,14.5-3.8c16.5,0,29.8,13.4,29.8,29.8C74.9,53.5,74.8,55,74.5,56.5z M22.4,87.9C10,70.7,14.9,47.5,17,39.8  c8,18.1,22.5,23.1,25.9,24c0.5,4.1,1.8,7.6,3.8,10.7C41.1,82.2,25.8,86.9,22.4,87.9z M79.4,84.6c-4.7,0.2-18.4,0.1-27.1-7.1  c-4.4-3.6-6.9-8.5-7.4-14.7c0-0.4-0.4-0.8-0.8-0.9c-0.2,0-22.1-4.5-28.6-33.4c2.3,0.3,7.2,0.4,13.2-1.9c0.9,2.2,3.3,7.5,8.7,13.3  c6.2,6.7,17.6,15.3,36.8,18.5C73.9,62,73.3,74.1,79.4,84.6z M76.5,46.8C74,31.7,60.9,20.1,45.1,20.1c-2.7,0-5.7,0.6-8.7,1.5  l-3.1-8.7c5-0.8,25.5-3.2,39.4,7.2c7.6,5.7,12.1,14.4,13.2,25.9L76.5,46.8z"/><circle cx="18.9" cy="52.5" r="1.7"/><circle cx="24.2" cy="57.7" r="1.7"/><circle cx="18.9" cy="59.4" r="1.7"/><circle cx="30.2" cy="62" r="1.7"/><circle cx="24.6" cy="64.4" r="1.7"/><circle cx="18.9" cy="66.1" r="1.7"/><circle cx="32" cy="68.8" r="1.7"/><circle cx="37.2" cy="66.1" r="1.7"/><circle cx="26.3" cy="71.2" r="1.7"/><circle cx="21.1" cy="72.9" r="1.7"/><circle cx="35.2" cy="75" r="1.7"/><circle cx="40.5" cy="72.3" r="1.7"/><circle cx="29.6" cy="77.3" r="1.7"/><circle cx="24.4" cy="79.1" r="1.7"/></svg>