<svg xmlns="http://www.w3.org/2000/svg" xmlns:xlink="http://www.w3.org/1999/xlink" version="1.1" x="0px" y="0px" viewBox="0 0 100 125" style="enable-background:new 0 0 100 100;" xml:space="preserve"><style type="text/css">
	.st0{fill:none;stroke:#000000;stroke-width:2;stroke-linecap:round;stroke-linejoin:round;stroke-miterlimit:10;}
	.st1{fill:none;stroke:#000000;stroke-width:2;stroke-miterlimit:10;}
</style><path d="M80.1,74.8c1.9-1.9,3.1-3.2,3.1-4.6c0-0.6-0.2-1.1-0.6-1.5c-1.5-1.5-5-0.8-8.4,1.5c-2.8-2.7-10.7-10.5-20-19.6  c34-34.7,34.6-35.5,34.8-35.8c1.3-2,0.6-3.1,0.5-3.3c0,0-0.1-0.1-0.1-0.1l-0.2-0.2c0,0-0.1-0.1-0.1-0.1c-0.2-0.2-1.3-0.9-3.3,0.5  c-0.3,0.2-1.1,0.7-35.9,34.8C33.8,30.6,15.9,13.1,15,12.5c-2-1.3-3.1-0.6-3.3-0.5c0,0-0.1,0.1-0.1,0.1l-0.2,0.2c0,0-0.1,0.1-0.1,0.1  c-0.2,0.2-0.9,1.3,0.5,3.3c0.6,0.9,18,18.7,33.8,34.9c-9.4,9.2-17.3,17-19.2,18.9c-3.3-2.3-6.8-3-8.4-1.5c-0.4,0.4-0.6,0.9-0.6,1.5  c0,1.3,1.2,2.7,3.1,4.6l-8.5,8.5c-1.3,1.3-1.3,3.4,0,4.6l1.5,1.5c0.6,0.6,1.5,1,2.3,1c0.8,0,1.7-0.3,2.3-1l8.5-8.5  c1.9,1.9,3.2,3.1,4.6,3.1c0,0,0,0,0,0c0.5,0,1-0.2,1.4-0.6c1.5-1.5,0.8-5-1.5-8.4c1.9-1.9,9.4-9.6,18.9-19.2  c8.5,8.7,16,16.3,19.6,19.9c-2.3,3.3-3,6.8-1.5,8.4c0.4,0.4,0.9,0.6,1.4,0.6c0,0,0,0,0,0c1.3,0,2.7-1.2,4.6-3.1l8.5,8.5  c0.6,0.6,1.5,1,2.3,1c0.8,0,1.7-0.3,2.3-1l1.5-1.5c1.3-1.3,1.3-3.4,0-4.6L80.1,74.8z M86.8,13.2c0.5-0.3,0.8-0.4,1-0.4  c0,0.2-0.1,0.5-0.4,1C87,14.2,82,19.6,52.9,49.3c-0.5-0.5-1-1-1.6-1.5C81,18.6,86.4,13.6,86.8,13.2z M12.9,13.7c0.2,0,0.5,0.1,1,0.4  c1.6,1.2,42.3,41.1,58.7,57.3l-0.8,0.8l-1.1,1.1C54.4,57,14.6,16.3,13.3,14.7C13,14.2,12.9,13.9,12.9,13.7z M16.6,87.4  c-0.5,0.5-1.3,0.5-1.8,0l-1.5-1.5c-0.5-0.5-0.5-1.3,0-1.8l8.5-8.5c0.5,0.5,1.1,1.1,1.7,1.6c0.6,0.6,1.1,1.1,1.6,1.7L16.6,87.4z   M31.1,81.3c-0.6,0.1-2.9-2.2-4.4-3.8c-0.6-0.6-1.2-1.2-1.8-1.8c-0.6-0.6-1.3-1.2-1.8-1.8c-1.5-1.5-3.9-3.7-3.8-4.4c0,0,0,0,0,0  c0.7-0.7,4.5,0,8.2,3.6C31.1,76.8,31.8,80.6,31.1,81.3z M29.9,72.7l-2-2c2.3-2.3,10-9.8,19-18.7c0.5,0.5,1.1,1.1,1.6,1.6  C39.4,63,32.1,70.4,29.9,72.7z M69.4,82c-0.7-0.7,0-4.5,3.6-8.2c2.8-2.8,5.8-3.9,7.3-3.9c0.4,0,0.7,0.1,0.9,0.2l0.7-0.7l-0.7,0.7  c0.1,0.6-2.2,2.9-3.8,4.4c-0.6,0.6-1.2,1.2-1.8,1.8c-0.6,0.6-1.2,1.3-1.8,1.8C72.3,79.8,70.1,82.2,69.4,82z M87.2,86.6l-1.5,1.5  c-0.5,0.5-1.3,0.5-1.8,0l-8.5-8.5c0.5-0.5,1.1-1.1,1.6-1.7c0.6-0.6,1.1-1.1,1.7-1.6l8.5,8.5C87.7,85.3,87.7,86.1,87.2,86.6z"/><text x="0" y="115" fill="#000000" font-size="5px" font-weight="bold" font-family="'Helvetica Neue', Helvetica, Arial-Unicode, Arial, Sans-serif">Created by Made by Made</text><text x="0" y="120" fill="#000000" font-size="5px" font-weight="bold" font-family="'Helvetica Neue', Helvetica, Arial-Unicode, Arial, Sans-serif">from the Noun Project</text></svg>